<svg height="512pt" viewBox="0 0 512 512" width="512pt" xmlns="http://www.w3.org/2000/svg"><path d="m450.71875 242.21875c34.824219-6.464844 61.28125-37.050781 61.28125-73.71875v-15h-279v-33.5h85.5v-15c0-41.355469-33.644531-75-75-75h-10.5v-30h-101.5c-22.253906 0-43.378906 7.070312-61.097656 20.441406-17.128906 12.929688-29.953125 31.3125-36.105469 51.765625l-25.054687 83.226563c-6.132813 20.375-9.242188 41.59375-9.242188 63.066406 0 58.363281 22.726562 113.234375 63.996094 154.503906 41.269531 41.269532 96.140625 63.996094 154.503906 63.996094h123.78125l53.035156 53.03125c14.621094 14.625 33.824219 21.9375 53.03125 21.933594 19.207032 0 38.414063-7.3125 53.035156-21.933594l10.582032-10.582031-139.679688-140.328125c9.292969-10.140625 15.824219-22.839844 18.433594-36.902344 30.371094-5.640625 54.359375-29.628906 60-60zm-133.71875 91.28125h-25.097656c8.800781-8.613281 16.097656-18.757812 21.453125-30h46.066406c-6.195313 17.457031-22.867187 30-42.421875 30zm60-60h-54.574219c.703125-4.902344 1.074219-9.90625 1.074219-15v-15h95.921875c-6.195313 17.457031-22.867187 30-42.421875 30zm60-60h-143.5v45c0 41.355469-33.644531 75-75 75s-75-33.644531-75-75 33.644531-75 75-75h260.929688c-6.191407 17.460938-22.871094 30-42.429688 30zm-193.5-153.5c19.558594 0 36.238281 12.539062 42.429688 30h-52.929688v-30zm-213.5 158.5c0-18.539062 2.683594-36.851562 7.972656-54.421875l25.050782-83.226563c9.011718-29.941406 37.171874-50.851562 68.476562-50.851562h71.5v124.644531c-50.574219 7.515625-89.5 51.222657-89.5 103.855469 0 57.894531 47.101562 105 105 105h98.5c10.925781 0 21.300781-2.367188 30.667969-6.585938l49.851562 50.085938h-179.019531c-103.9375 0-188.5-84.5625-188.5-188.5zm386.527344 250.320312-31.816406-31.820312h42.667968l40.402344 40.589844c-16.726562 7.992187-37.410156 5.070312-51.253906-8.769532zm0 0"/></svg>